<?xml version="1.0" standalone="no"?>
<!DOCTYPE svg PUBLIC "-//W3C//DTD SVG 20010904//EN"
 "http://www.w3.org/TR/2001/REC-SVG-20010904/DTD/svg10.dtd">
<svg version="1.0" xmlns="http://www.w3.org/2000/svg"
 width="176.000000pt" height="129.000000pt" viewBox="0 0 176.000000 129.000000"
 preserveAspectRatio="xMidYMid meet">
<metadata>
Created by potrace 1.15, written by Peter Selinger 2001-2017
</metadata>
<g transform="translate(0.000000,129.000000) scale(0.100000,-0.100000)"
fill="#000000" stroke="none">
<path d="M0 645 l0 -645 880 0 880 0 0 645 0 645 -880 0 -880 0 0 -645z m564
514 c79 -36 41 -219 -45 -219 -41 0 -45 22 -10 57 33 34 50 95 32 117 -38 46
-121 -66 -121 -163 0 -19 14 -77 32 -128 30 -88 31 -95 19 -149 -30 -132 -165
-191 -242 -106 -47 52 -46 145 2 206 15 19 30 26 55 26 42 0 57 -25 28 -49
-38 -31 -54 -65 -54 -112 0 -53 16 -72 56 -67 65 7 87 133 45 252 -36 100 -23
197 35 274 49 64 111 86 168 61z m626 -124 c11 -13 2 -39 -53 -168 -69 -163
-92 -230 -83 -253 15 -40 72 15 91 88 18 72 54 130 76 125 10 -3 23 7 33 24
34 58 123 58 154 -1 14 -27 9 -109 -9 -142 -14 -25 11 -24 45 3 21 16 26 17
26 5 0 -17 -46 -56 -67 -56 -9 0 -36 -22 -62 -49 -33 -36 -56 -51 -84 -56 -45
-9 -94 9 -102 36 -7 22 -21 25 -28 6 -6 -17 -68 -47 -96 -47 -29 0 -61 35 -61
66 l0 25 -39 -28 c-32 -23 -41 -37 -50 -79 -18 -80 -78 -124 -140 -103 -30 11
-51 45 -51 83 0 19 9 26 61 41 34 10 63 24 64 29 2 6 7 33 10 60 l7 50 -34
-45 c-28 -36 -41 -45 -70 -47 -28 -2 -40 2 -49 15 -10 18 -13 17 -44 -14 -66
-66 -145 -32 -131 57 9 58 95 250 112 250 8 0 23 -9 34 -20 19 -19 19 -22 4
-58 -68 -156 -81 -212 -50 -212 22 0 56 49 56 81 0 16 9 54 21 84 45 121 153
192 204 135 l18 -20 14 20 c17 23 32 25 58 6 17 -12 17 -16 -15 -92 -35 -83
-60 -166 -60 -198 0 -17 6 -15 36 15 43 40 115 186 193 392 9 23 14 26 29 18
10 -5 24 -17 32 -26z m-663 -513 c7 -4 24 -35 37 -68 23 -56 25 -58 34 -34 38
99 62 134 62 90 0 -11 7 -37 15 -56 14 -33 13 -39 -10 -96 -14 -34 -25 -69
-25 -78 0 -9 20 -65 44 -125 24 -61 42 -113 39 -117 -7 -13 -70 -9 -80 5 -6 6
-18 33 -29 59 -10 27 -22 48 -25 48 -3 0 -17 -27 -32 -60 -24 -57 -27 -60 -61
-60 -19 0 -37 4 -41 9 -3 6 15 62 41 125 l46 116 -46 116 c-26 63 -44 119 -41
125 7 11 55 12 72 1z m537 -1 c3 -5 -14 -58 -39 -117 -25 -60 -45 -115 -45
-122 0 -7 20 -62 45 -124 24 -61 42 -115 39 -119 -8 -14 -70 -11 -81 4 -6 6
-18 33 -28 59 -10 27 -21 48 -25 48 -4 0 -18 -27 -33 -60 -24 -57 -27 -60 -61
-60 -19 0 -37 4 -40 8 -3 5 16 61 41 125 l46 117 -26 66 -26 67 24 23 c14 13
25 28 25 34 0 23 19 8 30 -25 6 -19 15 -35 19 -35 5 0 16 21 26 48 10 26 22
53 28 60 11 14 73 17 81 3z m151 -241 l0 -245 -40 0 -40 0 -3 235 c-1 129 0
241 3 248 3 9 18 12 42 10 l38 -3 0 -245z"/>
<path d="M816 869 c-39 -31 -78 -119 -74 -170 2 -23 8 -44 15 -46 6 -2 23 15
36 38 19 32 23 47 16 61 -9 17 -5 22 14 19 4 -1 16 14 27 31 38 63 16 106 -34
67z"/>
</g>
</svg>
