<?xml version="1.0" encoding="UTF-8" standalone="no"?>
<svg
   xmlns:dc="http://purl.org/dc/elements/1.1/"
   xmlns:cc="http://creativecommons.org/ns#"
   xmlns:rdf="http://www.w3.org/1999/02/22-rdf-syntax-ns#"
   xmlns:svg="http://www.w3.org/2000/svg"
   xmlns="http://www.w3.org/2000/svg"
   id="svg5088"
   version="1.1"
   viewBox="0 0 25.12811 20.471794"
   height="20.471796mm"
   width="25.128111mm">
  <defs
     id="defs5082">
    <clipPath
       id="clipPath26"
       clipPathUnits="userSpaceOnUse">
      <path
         id="path24"
         d="m 46.87,357.72 h 57.62 v -61.3 H 46.87 Z" />
    </clipPath>
    <clipPath
       id="clipPath68"
       clipPathUnits="userSpaceOnUse">
      <path
         id="path66"
         d="m 134.76,353.97 h 53.44 v -53.8 h -53.44 z" />
    </clipPath>
    <clipPath
       id="clipPath92"
       clipPathUnits="userSpaceOnUse">
      <path
         id="path90"
         d="m 223.45,354.72 h 47.18 v -55.29 h -47.18 z" />
    </clipPath>
    <clipPath
       id="clipPath340"
       clipPathUnits="userSpaceOnUse">
      <path
         id="path338"
         d="m 297.63,333.83 h 56.08 V 295.5 h -56.08 z" />
    </clipPath>
    <clipPath
       id="clipPath220"
       clipPathUnits="userSpaceOnUse">
      <path
         id="path218"
         d="M 378.05,353.71 H 427.8 V 300.43 H 378.05 Z" />
    </clipPath>
    <clipPath
       id="clipPath1224"
       clipPathUnits="userSpaceOnUse">
      <path
         id="path1222"
         d="m 450.12,353.2 h 52.25 v -52.25 h -52.25 z" />
    </clipPath>
    <clipPath
       id="clipPath904"
       clipPathUnits="userSpaceOnUse">
      <path
         id="path902"
         d="m 520.935,347.63 h 55.64 v -41.12 h -55.64 z" />
    </clipPath>
    <clipPath
       id="clipPath1512"
       clipPathUnits="userSpaceOnUse">
      <path
         id="path1510"
         d="m 590.789,353.968 h 54.478 v -53.795 h -54.478 z" />
    </clipPath>
    <clipPath
       id="clipPath384"
       clipPathUnits="userSpaceOnUse">
      <path
         id="path382"
         d="M 46.97,277.28 H 104.4 V 231.61 H 46.97 Z" />
    </clipPath>
    <clipPath
       id="clipPath312"
       clipPathUnits="userSpaceOnUse">
      <path
         id="path310"
         d="m 127.4,282.06 h 68.16 V 240.85 H 127.4 Z" />
    </clipPath>
    <clipPath
       id="clipPath544"
       clipPathUnits="userSpaceOnUse">
      <path
         id="path542"
         d="m 208.18,291.795 h 77.715 V 231.114 H 208.18 Z" />
    </clipPath>
    <clipPath
       id="clipPath144"
       clipPathUnits="userSpaceOnUse">
      <path
         id="path142"
         d="m 309.62,285.63 h 32.112 V 237.28 H 309.62 Z" />
    </clipPath>
    <clipPath
       id="clipPath988"
       clipPathUnits="userSpaceOnUse">
      <path
         id="path986"
         d="m 381.1,282.73 h 43.66 V 240.17 H 381.1 Z" />
    </clipPath>
    <clipPath
       id="clipPath790"
       clipPathUnits="userSpaceOnUse">
      <path
         id="path788"
         d="m 453.3,278.98 h 46.82 V 242.6 H 453.3 Z" />
    </clipPath>
    <clipPath
       id="clipPath1144"
       clipPathUnits="userSpaceOnUse">
      <path
         id="path1142"
         d="m 523.77,273.9 h 51.05 v -26.22 h -51.05 z" />
    </clipPath>
    <clipPath
       id="clipPath1390"
       clipPathUnits="userSpaceOnUse">
      <path
         id="path1388"
         d="m 595.56,285.6 h 44.93 v -45.9 h -44.93 z" />
    </clipPath>
    <clipPath
       id="clipPath1052"
       clipPathUnits="userSpaceOnUse">
      <path
         id="path1050"
         d="M 54.2225,216.55 H 97.1436 V 173.66 H 54.2225 Z" />
    </clipPath>
    <clipPath
       id="clipPath762"
       clipPathUnits="userSpaceOnUse">
      <path
         id="path760"
         d="M 133.67,214.23 H 189.3 V 175.98 H 133.67 Z" />
    </clipPath>
    <clipPath
       id="clipPath276"
       clipPathUnits="userSpaceOnUse">
      <path
         id="path274"
         d="m 230.14,218.955 h 33.8 V 165.25 h -33.8 z" />
    </clipPath>
    <clipPath
       id="clipPath628"
       clipPathUnits="userSpaceOnUse">
      <path
         id="path626"
         d="m 297.63,227.63 h 56.09 v -71.05 h -56.09 z" />
    </clipPath>
    <clipPath
       id="clipPath420"
       clipPathUnits="userSpaceOnUse">
      <path
         id="path418"
         d="m 378.62,220.24 h 48.61 v -54.37 h -48.61 z" />
    </clipPath>
    <clipPath
       id="clipPath1072"
       clipPathUnits="userSpaceOnUse">
      <path
         id="path1070"
         d="m 447.51,212.1 h 58.4 v -44.61 h -58.4 z" />
    </clipPath>
    <clipPath
       id="clipPath1188"
       clipPathUnits="userSpaceOnUse">
      <path
         id="path1186"
         d="m 533.95,216.9 h 30.68 v -46.91 h -30.68 z" />
    </clipPath>
    <clipPath
       id="clipPath1478"
       clipPathUnits="userSpaceOnUse">
      <path
         id="path1476"
         d="M 593.15,205.25 H 642.9 V 175.81 H 593.15 Z" />
    </clipPath>
    <clipPath
       id="clipPath696"
       clipPathUnits="userSpaceOnUse">
      <path
         id="path694"
         d="m 41.9,158.92 h 63.56 V 108.56 H 41.9 Z" />
    </clipPath>
  </defs>
  <metadata
     id="metadata5085">
    <rdf:RDF>
      <cc:Work
         rdf:about="">
        <dc:format>image/svg+xml</dc:format>
        <dc:type
           rdf:resource="http://purl.org/dc/dcmitype/StillImage" />
        <dc:title></dc:title>
      </cc:Work>
    </rdf:RDF>
  </metadata>
  <g
     transform="translate(-76.176242,-85.784048)"
     id="layer1">
    <g
       id="g9090"
       transform="matrix(0.35277777,0,0,-0.35277777,62.747702,143.20041)">
      <g
         id="g690">
        <g
           id="g692" />
        <g
           id="g726">
          <g
             clip-path="url(#clipPath696)"
             id="g724">
            <g
               transform="translate(101.3398,136.1904)"
               id="g700">
              <path
                 d="m 0,0 v -17.33 c 0,-3.41 -2.77,-6.181 -6.17,-6.181 h -42.98 c -3.4,0 -6.17,2.771 -6.17,6.181 V 0 Z"
                 style="fill:#ffbb00;fill-opacity:1;fill-rule:nonzero;stroke:none"
                 id="path698" />
            </g>
            <path
               d="m 81.26,147.05 h -2.77 v 2.061 h 2.77 z"
               style="fill:#fafbfc;fill-opacity:1;fill-rule:nonzero;stroke:none"
               id="path702" />
            <path
               d="M 78.49,142.57 H 68.8 v 4.479 h 9.69 z"
               style="fill:#ff9e00;fill-opacity:1;fill-rule:nonzero;stroke:none"
               id="path704" />
            <path
               d="M 78.49,147.05 H 68.8 v 2.061 h 9.69 z"
               style="fill:#ff9e00;fill-opacity:1;fill-rule:nonzero;stroke:none"
               id="path706" />
            <path
               d="M 78.49,149.11 H 68.8 v 9.81 h 9.69 z"
               style="fill:#ff9e00;fill-opacity:1;fill-rule:nonzero;stroke:none"
               id="path708" />
            <g
               transform="translate(68.7998,142.5703)"
               id="g712">
              <path
                 d="m 0,0 h 9.69 v 4.479 h 2.77 V -3.16 H -2.71 V 4.479 H 0 Z"
                 style="fill:#fafbfc;fill-opacity:1;fill-rule:nonzero;stroke:none"
                 id="path710" />
            </g>
            <path
               d="m 68.8,147.05 h -2.71 v 2.061 h 2.71 z"
               style="fill:#fafbfc;fill-opacity:1;fill-rule:nonzero;stroke:none"
               id="path714" />
            <g
               transform="translate(103.3999,138.8096)"
               id="g718">
              <path
                 d="m 0,0 v -19.949 c 0,-4.551 -3.68,-8.24 -8.23,-8.24 h -42.98 c -4.54,0 -8.23,3.689 -8.23,8.24 V 0 c 0,4.551 3.69,8.24 8.23,8.24 h 13.9 V 0.601 h 15.17 V 8.24 H -8.23 C -3.68,8.24 0,4.551 0,0 m -2.06,-19.949 v 17.33 h -55.32 v -17.33 c 0,-3.41 2.77,-6.181 6.17,-6.181 h 42.98 c 3.4,0 6.17,2.771 6.17,6.181"
                 style="fill:#00607f;fill-opacity:1;fill-rule:nonzero;stroke:none"
                 id="path716" />
            </g>
            <g
               transform="translate(105.46,138.8096)"
               id="g722">
              <path
                 d="M 0,0 V -19.949 C 0,-25.63 -4.62,-30.25 -10.29,-30.25 h -42.98 c -5.67,0 -10.29,4.62 -10.29,10.301 V 0 c 0,5.681 4.62,10.301 10.29,10.301 h 13.9 V 8.24 h -13.9 C -57.81,8.24 -61.5,4.551 -61.5,0 v -19.949 c 0,-4.551 3.69,-8.24 8.23,-8.24 h 42.98 c 4.55,0 8.23,3.689 8.23,8.24 L -2.06,0 c 0,4.551 -3.68,8.24 -8.23,8.24 H -24.2 v 2.061 h 13.91 C -4.62,10.301 0,5.681 0,0"
                 style="fill:#00607f;fill-opacity:1;fill-rule:nonzero;stroke:none"
                 id="path720" />
            </g>
          </g>
        </g>
      </g>
      <g
         id="g728"
         transform="translate(66.0898,149.1104)">
        <path
           d="m 0,0 h -13.9 c -5.67,0 -10.29,-4.62 -10.29,-10.301 V -30.25 c 0,-5.681 4.62,-10.301 10.29,-10.301 h 42.98 c 5.67,0 10.29,4.62 10.29,10.301 v 19.949 C 39.37,-4.62 34.75,0 29.08,0 H 15.17"
           style="fill:none;stroke:#141414;stroke-width:2;stroke-linecap:round;stroke-linejoin:round;stroke-miterlimit:10;stroke-dasharray:none;stroke-opacity:1"
           id="path730" />
      </g>
      <g
         id="g732"
         transform="translate(95.1699,112.6797)">
        <path
           d="m 0,0 h -42.98 c -3.4,0 -6.17,2.771 -6.17,6.181 v 17.33 H 6.17 V 6.181 C 6.17,2.771 3.4,0 0,0 Z"
           style="fill:none;stroke:#141414;stroke-width:2;stroke-linecap:round;stroke-linejoin:round;stroke-miterlimit:10;stroke-dasharray:none;stroke-opacity:1"
           id="path734" />
      </g>
      <g
         id="g736"
         transform="translate(68.7998,149.1104)">
        <path
           d="M 0,0 H -2.71 V -2.061 -9.7 H 12.46 V -2.061 0 H 9.69"
           style="fill:none;stroke:#141414;stroke-width:2;stroke-linecap:round;stroke-linejoin:round;stroke-miterlimit:10;stroke-dasharray:none;stroke-opacity:1"
           id="path738" />
      </g>
      <g
         id="g740"
         transform="translate(78.4902,149.1104)">
        <path
           d="M 0,0 V 9.81 H -9.69 V 0 -2.061 -6.54 H 0 v 4.479 z"
           style="fill:none;stroke:#141414;stroke-width:2;stroke-linecap:round;stroke-linejoin:round;stroke-miterlimit:10;stroke-dasharray:none;stroke-opacity:1"
           id="path742" />
      </g>
      <g
         id="g744"
         transform="translate(56.75,128.8398)">
        <path
           d="M 0,0 H 34.75"
           style="fill:none;stroke:#141414;stroke-width:2;stroke-linecap:round;stroke-linejoin:round;stroke-miterlimit:10;stroke-dasharray:none;stroke-opacity:1"
           id="path746" />
      </g>
      <g
         id="g748"
         transform="translate(56.75,123.5)">
        <path
           d="M 0,0 H 34.75"
           style="fill:none;stroke:#141414;stroke-width:2;stroke-linecap:round;stroke-linejoin:round;stroke-miterlimit:10;stroke-dasharray:none;stroke-opacity:1"
           id="path750" />
      </g>
      <g
         id="g752"
         transform="translate(56.75,118.1699)">
        <path
           d="M 0,0 H 34.75"
           style="fill:none;stroke:#141414;stroke-width:2;stroke-linecap:round;stroke-linejoin:round;stroke-miterlimit:10;stroke-dasharray:none;stroke-opacity:1"
           id="path754" />
      </g>
    </g>
  </g>
</svg>
